<?xml version="1.0" encoding="UTF-8"?>
<svg
   xmlns="http://www.w3.org/2000/svg"
   height="365"
   width="505"
>
<rect
     y="0"
     x="0"
     height="365"
     width="505"
     id="rect4554"
     style="fill:#99823e;fill-opacity:1;stroke-width:0.75" />
  <g
     style="fill:#666666"
     id="g6"
     stroke="none"
     fill="#000000"
     transform="translate(0.000000,365.000000) scale(0.100000,-0.100000)">
    <path
       style="fill:#666666"
       id="path4"
       d="M0 1825 l0 -1825 2525 0 2525 0 0 1825 0 1825 -2525 0 -2525 0 0 -1825z m2571 1230 c23 -90 39 -111 66 -84 18 18 30 3 37 -43 9 -60 47 -168 58 -168 5 0 16 7 24 15 9 8 19 15 24 15 8 0 27 -83 46 -195 8 -44 12 -50 34 -50 24 0 25 -4 36 -85 12 -103 27 -134 57 -126 12 4 59 13 103 21 45 8 89 17 98 21 11 4 16 0 16 -14 0 -12 9 -22 23 -26 26 -6 161 8 191 20 17 6 18 4 12 -19 -4 -16 -2 -27 3 -27 6 0 56 12 112 26 55 14 104 23 107 20 3 -3 -2 -14 -10 -23 -24 -29 -50 -92 -46 -116 2 -12 14 -27 27 -33 l23 -12 -23 -12 c-13 -7 -38 -28 -55 -46 -18 -19 -35 -34 -38 -34 -4 0 -30 -23 -57 -51 -53 -54 -57 -79 -14 -79 37 0 31 -14 -22 -44 -68 -39 -114 -71 -141 -97 -20 -20 -21 -24 -7 -29 13 -4 9 -11 -17 -30 -18 -14 -42 -29 -52 -35 -10 -5 -25 -20 -33 -32 -16 -24 -21 -20 105 -84 34 -17 62 -33 62 -35 0 -2 -14 -11 -32 -20 l-32 -16 25 -14 c13 -7 30 -13 36 -14 7 0 42 -13 76 -30 35 -16 69 -30 75 -30 15 0 16 -17 2 -25 -13 -8 -13 -25 1 -25 10 0 29 -13 86 -60 7 -6 18 -10 25 -10 7 0 22 -7 32 -15 21 -16 18 -18 -39 -30 -16 -3 -53 -15 -82 -27 -44 -18 -50 -24 -43 -39 9 -15 3 -18 -43 -23 -83 -10 -118 -11 -179 -2 l-58 8 7 -32 6 -33 -54 6 c-30 4 -78 10 -108 14 l-54 6 7 -28 7 -28 -43 7 c-24 4 -81 12 -128 17 -46 5 -104 16 -128 24 -92 32 -98 25 -127 -130 -11 -64 -29 -117 -62 -183 -25 -50 -51 -96 -58 -102 -8 -7 -22 1 -45 25 -31 32 -32 36 -18 52 9 10 34 52 55 93 46 88 75 228 53 255 -17 21 -76 19 -190 -6 -149 -32 -243 -49 -248 -44 -3 3 2 13 11 23 10 10 17 21 17 24 0 4 -55 4 -122 1 l-123 -6 19 22 19 21 -49 0 c-27 0 -76 -5 -109 -10 -61 -10 -155 -4 -155 11 0 4 7 15 17 24 22 22 7 31 -69 40 -32 4 -58 11 -58 15 0 5 -15 12 -32 16 -30 6 -31 8 -15 18 10 6 31 21 45 34 15 12 35 25 46 28 30 10 75 55 69 70 -3 9 1 14 12 14 18 0 48 13 149 61 56 27 57 29 33 38 -37 14 -41 30 -10 37 15 4 57 20 93 36 l65 30 -34 26 c-81 64 -106 91 -92 101 11 7 7 13 -15 27 -16 11 -38 27 -49 37 -11 10 -33 26 -50 34 -37 20 -95 66 -95 76 0 4 13 7 28 7 16 0 32 3 35 6 9 10 -29 60 -100 133 -61 62 -78 89 -48 77 24 -9 45 4 45 29 0 13 -3 25 -7 27 -11 4 -66 118 -61 124 3 2 20 -3 38 -12 32 -16 78 -30 133 -41 26 -5 28 -4 21 22 -5 21 -4 26 7 22 61 -25 89 -29 104 -17 8 7 15 21 15 32 0 15 4 18 18 13 9 -4 58 -16 109 -26 50 -10 113 -25 139 -34 26 -9 51 -12 55 -8 5 5 16 57 25 116 17 109 26 124 58 92 22 -22 26 -19 26 19 0 37 24 160 41 214 l11 32 24 -19 c34 -27 50 -18 58 32 4 22 20 69 36 103 17 34 30 67 30 73 0 14 6 14 30 1 25 -13 35 2 50 75 7 32 19 74 28 92 l16 34 18 -38 c10 -21 23 -56 29 -78z" />
  </g>
</svg>
