<?xml version="1.0" encoding="UTF-8" standalone="no"?>
<svg
   xmlns:dc="http://purl.org/dc/elements/1.1/"
   xmlns:cc="http://creativecommons.org/ns#"
   xmlns:rdf="http://www.w3.org/1999/02/22-rdf-syntax-ns#"
   xmlns:svg="http://www.w3.org/2000/svg"
   xmlns="http://www.w3.org/2000/svg"
   version="1.0"
   id="svg2"
   height="258"
   width="220">
  <defs
     id="defs4" />
  <metadata
     id="metadata7">
    <rdf:RDF>
      <cc:Work
         rdf:about="">
        <dc:format>image/svg+xml</dc:format>
        <dc:type
           rdf:resource="http://purl.org/dc/dcmitype/StillImage" />
        <dc:title></dc:title>
      </cc:Work>
    </rdf:RDF>
  </metadata>
  <g
     id="layer1">
    <g
       transform="matrix(1.3964652,0,0,1.3964652,-200.95352,-402.6655)"
       id="g3218">
      <path
         id="path3196"
         d="M 261.78125,294.875 L 151.0625,295.21875 L 151.0625,401.65625 C 151.77679,440.22768 221.78125,465.9375 221.78125,465.9375 C 221.78125,465.93749 291.78125,445.22768 294.28125,401.65625 L 294.28125,322.71875 C 276.24554,320.93302 265.1741,317.01786 261.78125,294.875 z"
         style="opacity:1;fill:#ffffff;fill-opacity:1;fill-rule:evenodd;stroke:none;stroke-width:1px;stroke-linecap:butt;stroke-linejoin:miter;stroke-opacity:1" />
      <g
         id="g3212"
         transform="translate(40,0)">
        <g
           id="g3198">
          <path
             style="opacity:1;fill:#000000;fill-rule:evenodd;stroke:none;stroke-width:1px;stroke-linecap:butt;stroke-linejoin:miter;stroke-opacity:1"
             d="M 179.82143,322.36218 L 197.85714,322.36218 L 182.14286,370.3979 L 207.85714,370.3979 L 186.78571,432.71932 L 168.75,432.71932 L 185.71428,384.1479 L 158.57143,384.1479 L 179.82143,322.36218 z"
             id="path3177" />
          <path
             style="opacity:1;fill:#000000;fill-opacity:1;fill-rule:evenodd;stroke:none;stroke-width:1px;stroke-linecap:butt;stroke-linejoin:miter;stroke-opacity:1"
             d="M 202.5625,326.75 C 202.24817,326.74615 201.92521,326.76157 201.625,326.78125 C 199.44163,326.92439 197.64344,327.68364 196.46875,329.125 C 193.07466,333.28962 196.05642,341.69878 203.09375,348.78125 L 145.34375,417 L 160,430.5625 L 163.84375,427.28125 L 164.375,426.40625 L 152.625,416.21875 L 206.6875,353.90625 L 207.46875,352.5625 C 215.70974,358.75519 224.64452,360.45814 228.125,356.1875 C 228.2966,355.97695 228.45436,355.73145 228.59375,355.5 L 228.9375,355.5625 L 228.6875,355.34375 C 231.41961,350.46336 227.37024,341.35514 219.125,334.3125 C 213.49504,329.50368 207.27751,326.80777 202.5625,326.75 z M 204.34375,332.4375 C 209.99839,333.07715 214.47698,336.94857 218.28125,340.3125 C 221.06185,343.80866 226.44898,348.78514 223.5625,353.1875 C 215.0181,354.20214 208.20955,347.1527 203.6875,341.59375 C 201.46286,339.16972 198.40054,332.10919 204.34375,332.4375 z"
             id="path3179" />
        </g>
        <path
           id="path2398"
           d="M 221.78125,294.875 L 111.0625,295.21875 L 111.0625,401.65625 C 111.77679,440.22768 181.78125,465.9375 181.78125,465.9375 C 181.78125,465.93749 251.78125,445.22768 254.28125,401.65625 L 254.28125,322.71875 C 236.24554,320.93302 225.1741,317.01786 221.78125,294.875 z M 249.90625,326.34375 C 249.76425,370.45477 252.43542,388.68675 246.96875,415.125 C 234.12203,439.81306 205.77573,450.91118 182.03125,461.65625 C 154.21128,449.56832 128.70136,435.1603 115.625,406.375 C 114.3533,370.7277 115.412,334.92545 115.0625,299.21875 C 148.17709,299.1086 184.68452,298.98514 217.79911,298.875 C 221.02634,312.71815 230.10762,325.0729 249.90625,326.34375 z"
           style="opacity:1;fill:#1a1a1a;fill-opacity:1;fill-rule:evenodd;stroke:none;stroke-width:1px;stroke-linecap:butt;stroke-linejoin:miter;stroke-opacity:1" />
      </g>
    </g>
  </g>
</svg>
